PathFileType	4	(X/Y/Z)	D:\Share\Shared_Data\Ergonomics\Sit To Stand Pertubation\S3\Perturbed.trc
DataRate	CameraRate	NumFrames	NumMarkers	Units	OrigDataRate	OrigDataStartFrame	OrigNumFrames	
100	100	11	18	m	100	6213	251
Frame#	Time	R_ASIS			R_Pelvis			V_Sacral			L_Pelvis			L_ASIS			Clavical			R_Acromium			L_Acromium			Sternum			Torso			R_Thigh_Med			R_Thigh_Lat			R_Thigh			R_Shank_Med			R_Shank_Lat			R_Shank			R_Heel			R_Toe			
		X1	Y1	Z1	X2	Y2	Z2	X3	Y3	Z3	X4	Y4	Z4	X5	Y5	Z5	X6	Y6	Z6	X7	Y7	Z7	X8	Y8	Z8	X9	Y9	Z9	X10	Y10	Z10	X11	Y11	Z11	X12	Y12	Z12	X13	Y13	Z13	X14	Y14	Z14	X15	Y15	Z15	X16	Y16	Z16	X17	Y17	Z17	X18	Y18	Z18	

6213	62.12	0.016010965	0.64469171	0.1493658	-0.09363662	0.62774786	0.20343025	-0.20300891	0.62219885	0.017115616	-0.090549553	0.64669666	-0.18466541	0.017218285	0.63997614	-0.13237427	-0.034821564	1.043136	-0.00084484249	-0.094560509	1.0998483	0.17257802	-0.081904083	1.0967975	-0.1547377	-0.0039876289	0.97181848	0.0080917835	-0.027827871	1.0302577	-0.062458294	0.36209839	0.46954593	0.063273453	0.35088608	0.4521785	0.18236635	0.18003836	0.57891803	0.10687801	0.30404868	0.10701974	0.09488549	0.29174979	0.094399086	0.17613646	0.30436697	0.27440659	0.19579271	0.23172366	0.058124302	0.13848618	0.44789587	0.056471848	0.1156431
6214	62.13	0.016050905	0.64465857	0.14935886	-0.093600395	0.62774567	0.20343896	-0.20299254	0.62221246	0.017141876	-0.090554253	0.64670636	-0.18464246	0.017219742	0.63996619	-0.13236098	-0.034932755	1.0431146	-0.00086071175	-0.094632568	1.0998369	0.17257185	-0.082007851	1.0967588	-0.15474324	-0.0040801482	0.97179218	0.0080899239	-0.027955883	1.0302063	-0.062457718	0.3621138	0.46953134	0.063253307	0.35091183	0.45218195	0.18234229	0.18005704	0.57891681	0.1068631	0.30404965	0.10701971	0.094880959	0.29175003	0.094397163	0.17613593	0.30438275	0.27441299	0.19577562	0.23172707	0.058127708	0.13848502	0.4478978	0.056470726	0.11563939
6215	62.14	0.016081261	0.6446283	0.14935533	-0.093569878	0.62774084	0.20345212	-0.2029846	0.62222192	0.017174393	-0.090570999	0.64671442	-0.18461516	0.017212467	0.63996167	-0.13234665	-0.035044575	1.0430922	-0.00086817533	-0.09470491	1.0998289	0.17256789	-0.082106682	1.0967209	-0.15474852	-0.0041744289	0.97176392	0.00808957	-0.028081919	1.0301553	-0.062456573	0.36212289	0.46952063	0.063229778	0.35093063	0.45218427	0.18231735	0.18006927	0.57891681	0.10685166	0.30404968	0.10701945	0.094876251	0.2917504	0.094393211	0.17613762	0.30439481	0.2744191	0.19575742	0.23173096	0.058130947	0.13848337	0.4478992	0.056469326	0.11563626
6216	62.15	0.016102659	0.64460284	0.14935309	-0.093543861	0.62773566	0.20346837	-0.20298396	0.62222858	0.017212128	-0.090597702	0.64672131	-0.18458482	0.017196659	0.63996313	-0.13233072	-0.035156483	1.0430697	-0.00086552775	-0.094778938	1.0998242	0.17256595	-0.082204765	1.0966844	-0.15475549	-0.0042703524	0.97173486	0.0080907145	-0.028204798	1.0301082	-0.062455048	0.36212518	0.46951511	0.063202179	0.3509425	0.45218561	0.1822921	0.18007504	0.57891791	0.10684301	0.30404883	0.107019	0.094871483	0.29175168	0.094387459	0.17614003	0.30440326	0.27442468	0.19573854	0.23173491	0.058134315	0.13848149	0.44790015	0.056467926	0.11563381
6217	62.16	0.01611577	0.64458307	0.14935031	-0.09352179	0.62773224	0.20348636	-0.20298923	0.62223376	0.017253475	-0.090631767	0.64672754	-0.18455327	0.017173229	0.63997089	-0.13231287	-0.035267929	1.0430488	-0.0008525452	-0.094856728	1.0998229	0.17256566	-0.082304237	1.0966505	-0.15476462	-0.0043680067	0.9717066	0.0080939732	-0.028323206	1.0300675	-0.062452583	0.36212088	0.46951541	0.063170231	0.35094763	0.4521864	0.18226712	0.18007489	0.57892023	0.10683675	0.30404724	0.10701843	0.094866814	0.29175412	0.094380592	0.17614186	0.30440793	0.27442966	0.19571941	0.23173857	0.058138161	0.13847946	0.44790063	0.05646693	0.11563195
6218	62.17	0.016121071	0.64456909	0.14934608	-0.093503731	0.62773199	0.20350502	-0.20299907	0.62223895	0.017296425	-0.090670456	0.64673376	-0.18452237	0.017143736	0.63998462	-0.13229288	-0.035378578	1.0430305	-0.00083066565	-0.094940712	1.0998252	0.17256644	-0.082405022	1.0966189	-0.15477504	-0.0044675188	0.97168073	0.0081001272	-0.028436062	1.0300355	-0.062448135	0.3621106	0.46952121	0.063134357	0.3509465	0.45218723	0.18224295	0.18006967	0.57892413	0.10683295	0.30404477	0.10701771	0.094862343	0.29175714	0.094374084	0.17614288	0.30440875	0.2744342	0.1957005	0.23174168	0.058142738	0.13847723	0.44790079	0.056466686	0.11563047
6219	62.18	0.016118725	0.64456049	0.14934012	-0.093490227	0.62773547	0.20352351	-0.20301231	0.62224481	0.017338739	-0.090711205	0.64674017	-0.18449393	0.017109989	0.64000378	-0.13227043	-0.035488129	1.0430148	-0.00080224568	-0.095033066	1.0998301	0.17256761	-0.082505135	1.0965901	-0.15478474	-0.004568924	0.97165814	0.0081095819	-0.028542725	1.0300121	-0.062440681	0.36209521	0.46953162	0.063095882	0.35093961	0.45218848	0.18222018	0.18006039	0.57892963	0.10683165	0.30404163	0.10701696	0.094858223	0.29176044	0.094369164	0.17614342	0.30440594	0.27443875	0.19568236	0.23174425	0.058148006	0.13847476	0.44790085	0.056467285	0.11562914
6220	62.19	0.016108809	0.64455615	0.14933261	-0.09348185	0.62774268	0.20354106	-0.20302802	0.62225189	0.017378168	-0.090751831	0.64674738	-0.18446924	0.017073587	0.64002814	-0.13224542	-0.035596069	1.0430017	-0.00076997554	-0.095134682	1.0998368	0.17256853	-0.082601669	1.0965632	-0.15479166	-0.0046720452	0.97163971	0.0081220264	-0.028643063	1.0299971	-0.062429695	0.36207574	0.46954504	0.063056721	0.35092737	0.45219022	0.18219957	0.18004793	0.57893689	0.10683248	0.30403784	0.10701633	0.094854576	0.29176437	0.094366386	0.17614299	0.30440002	0.27444363	0.19566562	0.23174622	0.058153687	0.13847195	0.44790091	0.056468472	0.11562778
6221	62.2	0.016091677	0.64455518	0.14932378	-0.093478912	0.62775232	0.20355681	-0.20304533	0.62225995	0.017412706	-0.090790627	0.64675525	-0.18444916	0.017035606	0.64005658	-0.13221843	-0.035701466	1.0429907	-0.00073650616	-0.095244728	1.0998451	0.17256889	-0.082692245	1.0965385	-0.15479465	-0.0047763224	0.97162524	0.0081365499	-0.028737349	1.0299886	-0.062415489	0.36205325	0.46955939	0.06301897	0.35091031	0.45219214	0.18218175	0.18003297	0.5789458	0.10683453	0.30403381	0.10701611	0.094851517	0.29176904	0.094366035	0.17614108	0.30439172	0.27444925	0.19565091	0.23174756	0.058159557	0.13846866	0.44790112	0.056469879	0.11562629
6222	62.21	0.01606802	0.64455621	0.14931372	-0.093481598	0.62776288	0.20357004	-0.20306367	0.6222691	0.017440809	-0.090826439	0.64676398	-0.18443443	0.016996487	0.64008765	-0.1321906	-0.035802883	1.042981	-0.00070412374	-0.095360466	1.0998535	0.17256839	-0.082775681	1.0965157	-0.15479411	-0.004880692	0.97161432	0.0081520491	-0.028825977	1.0299849	-0.062399155	0.36202881	0.46957248	0.062984543	0.35088895	0.45219391	0.18216736	0.18001598	0.57895624	0.10683666	0.30403015	0.10701654	0.094849037	0.2917735	0.094368423	0.17613821	0.30438168	0.27445557	0.19563879	0.23174841	0.058165565	0.13846481	0.44790161	0.056471199	0.11562452
6223	62.22	0.016038439	0.64455859	0.14930234	-0.093490128	0.62777277	0.20358031	-0.20308272	0.62227856	0.017461428	-0.090858582	0.6467735	-0.18442558	0.016956085	0.64011945	-0.13216353	-0.035898338	1.0429707	-0.0006745984	-0.095477585	1.0998619	0.17256674	-0.082851379	1.0964958	-0.15479126	-0.004983674	0.9716051	0.0081675138	-0.028909037	1.0299824	-0.062382355	0.36200327	0.46958206	0.062955006	0.35086389	0.45219553	0.18215668	0.17999727	0.57896783	0.10683796	0.30402704	0.10701748	0.094847008	0.29177667	0.09437291	0.17613507	0.30437054	0.27446225	0.1956295	0.23174924	0.058171562	0.13846071	0.44790228	0.056472206	0.11562248
